:FULLY-SPECIFIED
:FORCE-ALL-JOINTS-BE-3DOF
:DEGREES
510
root 5.95015 15.9341 -5.24089 -174.963 76.9044 179.987
lfemur -26.4475 -15.4949 -23.3757
ltibia 56.981 -0 0
lfoot -26.7935 -1.87952 -0.224735
ltoes 7.60598 -0 0
rfemur -57.1691 4.0891 3.08414
rtibia 65.2848 -0 0
rfoot 9.4199 12.493 0.18087
rtoes -23.8122 0 0
lowerback 8.44001 0.279672 -0.369702
upperback 2.18114 0.730757 3.42541
thorax -2.5117 0.452459 3.68961
lowerneck -7.85774 -12.477 -3.95717
upperneck 10.6231 -16.5757 3.22852
head 5.40982 -8.06556 0.386602
lclavicle -3.89618e-014 -4.13472e-014 0
lhumerus -47.0179 -31.7274 115.994
lradius 58.5524 -0 0
lwrist 9.8439 0 0
lhand -0.278759 -1.62365 0.349054
lfingers 7.12502 -0 0
lthumb 25.2841 26.3022 0.211934
rclavicle -3.89618e-014 -4.13472e-014 0
rhumerus -16.3409 28.8604 -85.8742
rradius 107.997 -0 0
rwrist -2.73533 0 0
rhand -10.8762 -18.6724 0.118491
rfingers 7.12502 -0 0
rthumb 15.1284 -47.9089 0.153574
511
root 6.01318 15.8914 -5.1846 -175.026 75.4612 -179.974
lfemur -26.6706 -14.9326 -23.3512
ltibia 58.1949 -0 0
lfoot -27.0618 -1.40354 -0.233174
ltoes 6.55714 -0 0
rfemur -56.6213 3.93108 2.4641
rtibia 63.9223 -0 0
rfoot 9.57925 12.4711 0.165316
rtoes -24.914 0 0
lowerback 8.7271 0.353197 -0.214236
upperback 2.37316 0.874325 3.67936
thorax -2.4822 0.531392 3.85262
lowerneck -7.7384 -12.7482 -4.16212
upperneck 10.8639 -16.9367 3.36748
head 5.49262 -8.23555 0.419903
lclavicle -3.89618e-014 -4.13472e-014 0
lhumerus -46.7991 -31.5496 115.951
lradius 58.7628 -0 0
lwrist 10.4155 0 0
lhand -1.35286 -1.99526 0.379283
lfingers 7.12502 -0 0
lthumb 24.2533 26.0506 0.232997
rclavicle -3.89618e-014 -4.13472e-014 0
rhumerus -13.986 27.7995 -84.9315
rradius 110.019 -0 0
rwrist -5.88937 0 0
rhand -11.7577 -18.9407 0.140924
rfingers 7.12502 -0 0
rthumb 14.2786 -48.2244 0.177852
512
root 6.07621 15.8487 -5.1283 -175.077 74.0294 -179.928
lfemur -26.9099 -14.3446 -23.3206
ltibia 59.4235 -0 0
lfoot -27.3325 -0.926845 -0.238913
ltoes 5.49886 -0 0
rfemur -56.0327 3.77624 1.8435
rtibia 62.5321 -0 0
rfoot 9.74892 12.4342 0.14789
rtoes -26.0409 0 0
lowerback 9.01272 0.425806 -0.0542313
upperback 2.56655 1.01743 3.93561
thorax -2.45078 0.610405 4.0152
lowerneck -7.61557 -13.0177 -4.36626
upperneck 11.1012 -17.2968 3.50644
head 5.57382 -8.40491 0.453329
lclavicle -3.89618e-014 -4.13472e-014 0
lhumerus -46.5772 -31.3575 115.897
lradius 58.9693 -0 0
lwrist 10.9935 0 0
lhand -2.4568 -2.37746 0.403424
lfingers 7.12502 -0 0
lthumb 23.194 25.7914 0.250178
rclavicle -3.89618e-014 -4.13472e-014 0
rhumerus -11.6702 26.6747 -84.0427
rradius 112.04 -0 0
rwrist -9.07545 0 0
rhand -12.6641 -19.2194 0.16042
rfingers 7.12502 -0 0
rthumb 13.4047 -48.5514 0.198656
513
root 6.13924 15.8059 -5.07201 -175.122 72.6128 -179.878
lfemur -27.1619 -13.7358 -23.2845
ltibia 60.6597 -0 0
lfoot -27.6052 -0.453298 -0.241829
ltoes 4.43685 -0 0
rfemur -55.4106 3.62578 1.22525
rtibia 61.1242 -0 0
rfoot 9.92542 12.3832 0.129121
rtoes -27.1848 0 0
lowerback 9.29567 0.496953 0.108837
upperback 2.76043 1.15905 4.19267
thorax -2.41762 0.688946 4.1767
lowerneck -7.48961 -13.2846 -4.56876
upperneck 11.3337 -17.6546 3.64492
head 5.653 -8.57296 0.48683
lclavicle -3.89618e-014 -4.13472e-014 0
lhumerus -46.3536 -31.1513 115.831
lradius 59.1707 -0 0
lwrist 11.5759 0 0
lhand -3.58325 -2.76702 0.420724
lfingers 7.12502 -0 0
lthumb 22.113 25.5271 0.262938
rclavicle -3.89618e-014 -4.13472e-014 0
rhumerus -9.40276 25.4978 -83.2138
rradius 114.052 -0 0
rwrist -12.2758 0 0
rhand -13.5889 -19.5057 0.176351
rfingers 7.12502 -0 0
rthumb 12.513 -48.8868 0.215319
514
root 6.20227 15.7632 -5.01571 -175.161 71.2154 -179.827
lfemur -27.4232 -13.1111 -23.2436
ltibia 61.8968 -0 0
lfoot -27.8791 0.0132228 -0.241846
ltoes 3.37682 -0 0
rfemur -54.7623 3.48066 0.612345
rtibia 59.7085 -0 0
rfoot 10.1052 12.3189 0.109531
rtoes -28.3373 0 0
lowerback 9.57479 0.566118 0.273486
upperback 2.9539 1.29815 4.44898
thorax -2.38292 0.766466 4.33645
lowerneck -7.36089 -13.5476 -4.76876
upperneck 11.5601 -18.0087 3.7825
head 5.72974 -8.73902 0.520357
lclavicle -3.89618e-014 -4.13472e-014 0
lhumerus -46.1296 -30.9311 115.754
lradius 59.3654 -0 0
lwrist 12.1606 0 0
lhand -4.72489 -3.16068 0.43064
lfingers 7.12502 -0 0
lthumb 21.0175 25.2598 0.270882
rclavicle -3.89618e-014 -4.13472e-014 0
rhumerus -7.19158 24.281 -82.4493
rradius 116.045 -0 0
rwrist -15.4727 0 0
rhand -14.5254 -19.7972 0.188233
rfingers 7.12502 -0 0
rthumb 11.6101 -49.2276 0.227333
515
root 6.2653 15.7205 -4.95942 -175.198 69.8408 -179.778
lfemur -27.6903 -12.4755 -23.1983
ltibia 63.1277 -0 0
lfoot -28.1538 0.46884 -0.238933
ltoes 2.32451 -0 0
rfemur -54.0951 3.34162 0.00781126
rtibia 58.2949 -0 0
rfoot 10.2848 12.2422 0.089635
rtoes -29.4901 0 0
lowerback 9.84889 0.632799 0.438225
upperback 3.14606 1.43375 4.70301
thorax -2.34689 0.842417 4.49381
lowerneck -7.22984 -13.8057 -4.9654
upperneck 11.7793 -18.3574 3.91876
head 5.80361 -8.90242 0.553865
lclavicle -3.89618e-014 -4.13472e-014 0
lhumerus -45.9066 -30.6971 115.665
lradius 59.5522 -0 0
lwrist 12.7454 0 0
lhand -5.87439 -3.55515 0.432854
lfingers 7.12502 -0 0
lthumb 19.9145 24.9921 0.273768
rclavicle -3.89618e-014 -4.13472e-014 0
rhumerus -5.04331 23.037 -81.752
rradius 118.013 -0 0
rwrist -18.6484 0 0
rhand -15.4671 -20.0909 0.195729
rfingers 7.12502 -0 0
rthumb 10.702 -49.5708 0.234354
